<svg xmlns="http://www.w3.org/2000/svg" width="142.26" height="173.007" viewBox="0 0 142.26 173.007">
  <g id="Grupo_10566" data-name="Grupo 10566" transform="matrix(0.974, 0.225, -0.225, 0.974, 26.15, -295.566)" opacity="0.4">
    <path id="Caminho_3" data-name="Caminho 3" d="M76,383.59l75.2-75.2" transform="translate(16.171 16.171)" fill="none" stroke="#3a3a3a" stroke-width="1"/>
    <path id="Caminho_4" data-name="Caminho 4" d="M76,383.59l75.2-75.2" transform="translate(19.968 19.968)" fill="none" stroke="#3a3a3a" stroke-width="1"/>
    <path id="Caminho_5" data-name="Caminho 5" d="M76,383.59l75.2-75.2" transform="translate(27.562 27.562)" fill="none" stroke="#3a3a3a" stroke-width="1"/>
    <path id="Caminho_6" data-name="Caminho 6" d="M76,383.59l75.2-75.2" transform="translate(23.765 23.765)" fill="none" stroke="#3a3a3a" stroke-width="1"/>
    <path id="Caminho_7" data-name="Caminho 7" d="M76,383.59l75.2-75.2" transform="translate(31.358 31.358)" fill="none" stroke="#3a3a3a" stroke-width="1"/>
    <path id="Caminho_8" data-name="Caminho 8" d="M76,383.59l75.2-75.2" transform="translate(35.155 35.155)" fill="none" stroke="#3a3a3a" stroke-width="1"/>
    <path id="Caminho_9" data-name="Caminho 9" d="M76,383.59l75.2-75.2" transform="translate(38.952 38.952)" fill="none" stroke="#3a3a3a" stroke-width="1"/>
    <path id="Caminho_10" data-name="Caminho 10" d="M76,383.59l75.2-75.2" transform="translate(42.749 42.749)" fill="none" stroke="#3a3a3a" stroke-width="1"/>
    <path id="Caminho_11" data-name="Caminho 11" d="M76,383.59l75.2-75.2" transform="translate(46.546 46.546)" fill="none" stroke="#3a3a3a" stroke-width="1"/>
    <path id="Caminho_12" data-name="Caminho 12" d="M76,383.59l75.2-75.2" transform="translate(50.342 50.342)" fill="none" stroke="#3a3a3a" stroke-width="1"/>
    <path id="Caminho_13" data-name="Caminho 13" d="M76,383.59l75.2-75.2" transform="translate(12.374 12.374)" fill="none" stroke="#3a3a3a" stroke-width="1"/>
    <path id="Caminho_14" data-name="Caminho 14" d="M76,383.59l75.2-75.2" transform="translate(4.781 4.781)" fill="none" stroke="#3a3a3a" stroke-width="1"/>
    <path id="Caminho_15" data-name="Caminho 15" d="M76,383.59l75.2-75.2" transform="translate(8.578 8.578)" fill="none" stroke="#3a3a3a" stroke-width="1"/>
    <path id="Caminho_16" data-name="Caminho 16" d="M76,383.59l75.2-75.2" transform="translate(-2.813 -2.813)" fill="none" stroke="#3a3a3a" stroke-width="1"/>
    <path id="Caminho_17" data-name="Caminho 17" d="M76,383.59l75.2-75.2" transform="translate(0.984 0.984)" fill="none" stroke="#3a3a3a" stroke-width="1"/>
    <path id="Caminho_18" data-name="Caminho 18" d="M76,383.59l75.2-75.2" transform="translate(-6.61 -6.61)" fill="none" stroke="#3a3a3a" stroke-width="1"/>
    <path id="Caminho_19" data-name="Caminho 19" d="M76,383.59l75.2-75.2" transform="translate(-14.203 -14.203)" fill="none" stroke="#3a3a3a" stroke-width="1"/>
    <path id="Caminho_20" data-name="Caminho 20" d="M76,383.59l75.2-75.2" transform="translate(-10.406 -10.406)" fill="none" stroke="#3a3a3a" stroke-width="1"/>
    <path id="Caminho_21" data-name="Caminho 21" d="M76,383.59l75.2-75.2" transform="translate(-18 -18)" fill="none" stroke="#3a3a3a" stroke-width="1"/>
  </g>
</svg>
