<svg id="tool" xmlns="http://www.w3.org/2000/svg" width="68.526" height="68.642" viewBox="0 0 68.526 68.642">
  <path id="Caminho_1833" data-name="Caminho 1833" d="M107.7,33.286a3.355,3.355,0,0,0,1.636.121,2.364,2.364,0,0,0,1.2-.714c11.021-11.043,17.788-21.144,17.43-30.572L119.5,10.583a12.3,12.3,0,0,1-2.968,5.347,12.3,12.3,0,0,1-5.347,2.968L108.5,21.585a5.547,5.547,0,0,0-.7-.943c-.057-.062-.11-.127-.169-.187a5.538,5.538,0,0,0-1.127-.863l2.7-2.7a12.285,12.285,0,0,1,2.964-5.333A12.292,12.292,0,0,1,117.5,8.6L125.975.128A9.8,9.8,0,0,0,124.365,0c-11.407,0-29.06,17.654-29.073,17.667v0a2.35,2.35,0,0,0-.612,1.135,3.357,3.357,0,0,0,.121,1.549c.2.829.438,1.646.589,2.488a23.123,23.123,0,0,1,.229,6.017,29.571,29.571,0,0,1-1.063,5.873,38.126,38.126,0,0,1-2.213,5.637,80.846,80.846,0,0,1-6.336,10.588c-2.2,3.235-4.614,6.318-6.911,9.484A6.7,6.7,0,0,0,78.1,62.2a4.893,4.893,0,0,0,7.131,5.762,11.185,11.185,0,0,0,1.736-1.435c.877-.8,1.724-1.63,2.558-2.477a63.483,63.483,0,0,0,13.8-20.521,36.073,36.073,0,0,0,1.771-5.634l3.942,2.2,1.1-1.1-4.474-4.475a24.476,24.476,0,0,0,.049-5.03,5.456,5.456,0,0,0,1.57-.926,24.53,24.53,0,0,1,.153,4.657ZM105,25.607a1.778,1.778,0,1,1,.522-1.258A1.767,1.767,0,0,1,105,25.607Z" transform="translate(-59.455 0)" fill="#3a3a3a"/>
  <path id="Caminho_1834" data-name="Caminho 1834" d="M33.928,86.954a28.645,28.645,0,0,0,.827-4.92,21.286,21.286,0,0,0-.208-5.586c-.04-.224-.088-.448-.14-.675l-.019,0-5.889-5.9-1.1,1.1,3.058,5.488A46.374,46.374,0,0,0,19.9,80.621,60.319,60.319,0,0,0,9.494,87.7a70.588,70.588,0,0,0-8.027,7.739,4.887,4.887,0,0,0,2.942,8.073,5.274,5.274,0,0,0,3.938-1.126c1.519-1.084,3.009-2.217,4.5-3.342,3.282-2.477,6.693-4.792,10.184-6.963A46.636,46.636,0,0,1,33.928,86.954Z" transform="translate(-0.245 -53.313)" fill="#3a3a3a"/>
</svg>
