<svg id="wrench" xmlns="http://www.w3.org/2000/svg" width="72.988" height="72.988" viewBox="0 0 72.988 72.988">
  <g id="Grupo_10744" data-name="Grupo 10744" transform="translate(0 0)">
    <g id="Grupo_10743" data-name="Grupo 10743">
      <path id="Caminho_1835" data-name="Caminho 1835" d="M72.863,11.014A2.139,2.139,0,0,0,69.234,9.8L66.21,12.829a4.38,4.38,0,0,1-6.05,0,4.272,4.272,0,0,1,0-6.047l3.024-3.024A2.139,2.139,0,0,0,61.973.128,12.83,12.83,0,0,0,47.767,16.151L16.151,47.766l0,0A12.834,12.834,0,0,0,.126,61.974a2.139,2.139,0,0,0,3.629,1.211l3.024-3.026a4.38,4.38,0,0,1,6.05,0,4.272,4.272,0,0,1,0,6.047L9.8,69.23a2.139,2.139,0,0,0,1.211,3.629A12.83,12.83,0,0,0,25.222,56.837L56.838,25.222l0,0a12.834,12.834,0,0,0,16.023-14.21Z" transform="translate(0 -0.002)"/>
    </g>
  </g>
  <g id="Grupo_10746" data-name="Grupo 10746" transform="translate(39.518 39.518)">
    <g id="Grupo_10745" data-name="Grupo 10745">
      <path id="Caminho_1836" data-name="Caminho 1836" d="M297.851,285.02a12.627,12.627,0,0,0-3.279.476l-8.288-8.287-9.074,9.073,8.287,8.287a12.649,12.649,0,0,0-.476,3.28,12.83,12.83,0,1,0,12.83-12.83Zm7.016,12.4-1.272,4.744a2.143,2.143,0,0,1-1.512,1.512l-4.744,1.272a2.136,2.136,0,0,1-2.065-.553l-3.473-3.473a2.136,2.136,0,0,1-.553-2.065l1.272-4.744a2.143,2.143,0,0,1,1.512-1.512l4.744-1.272a2.125,2.125,0,0,1,2.065.553l3.473,3.473A2.136,2.136,0,0,1,304.868,297.422Z" transform="translate(-277.211 -277.209)"/>
    </g>
  </g>
  <g id="Grupo_10748" data-name="Grupo 10748" transform="translate(0 0)">
    <g id="Grupo_10747" data-name="Grupo 10747">
      <path id="Caminho_1837" data-name="Caminho 1837" d="M25.218,16.029A12.88,12.88,0,0,0,21.9,3.633a13.143,13.143,0,0,0-18.144,0A12.832,12.832,0,0,0,16.147,25.1L24.4,33.469,33.471,24.4Zm-5.592-3.965-1.272,4.744a2.143,2.143,0,0,1-1.512,1.512L12.1,19.591a2.136,2.136,0,0,1-2.065-.553L6.56,15.565A2.136,2.136,0,0,1,6.007,13.5L7.279,8.756A2.143,2.143,0,0,1,8.791,7.244l4.744-1.272a2.131,2.131,0,0,1,2.065.553L19.073,10A2.136,2.136,0,0,1,19.626,12.064Z" transform="translate(-0.001 0)"/>
    </g>
  </g>
</svg>
