<svg id="spatula" xmlns="http://www.w3.org/2000/svg" width="77.466" height="77.465" viewBox="0 0 77.466 77.465">
  <path id="Caminho_1838" data-name="Caminho 1838" d="M102.442,53.843c12.081,0,29.221-12.836,41.233-24.848a2.61,2.61,0,0,0,0-3.69L119.136.765a2.61,2.61,0,0,0-3.69,0C106.5,9.708,99.2,19.253,94.877,27.643c-6.73,13.071-4.269,19.688-1.019,22.938A11.656,11.656,0,0,0,102.442,53.843Z" transform="translate(-66.973 -0.001)"/>
  <path id="Caminho_1839" data-name="Caminho 1839" d="M24.3,181.6a14.681,14.681,0,0,1-4.027-7.842L7.344,182.29a16.987,16.987,0,0,0-5.9,7.549l-.988,2.807a9.806,9.806,0,0,0,2.182,9.6l1.017,1.017a9.815,9.815,0,0,0,6.775,2.641,8.543,8.543,0,0,0,2.827-.459l2.807-.988a16.989,16.989,0,0,0,7.548-5.9l8.525-12.924A14.667,14.667,0,0,1,24.3,181.6Zm-9.456,13.147a2.611,2.611,0,1,1,.765-1.845A2.625,2.625,0,0,1,14.846,194.751Z" transform="translate(0.001 -128.44)"/>
</svg>
